<svg version="1.1" viewBox="0 0 300 300" xmlns="http://www.w3.org/2000/svg">
 <path d="m150 14.6a135 135 0 1 0 135 135 135 135 0 0 0-135-135zm0 237a102 102 0 1 1 102-102 102 102 0 0 1-102 102z" stroke-width="1.16"/>
 <path d="m127 171v-2.73q4e-3 -27.6 0.0185-55.1c0.0135-7.03 5.77-12.4 12.4-11.8 5.32 0.554 9.87 5.44 9.92 10.8 0.0616 6.31 0.0209 12.6 0.0246 18.9v2.4a34.5 34.5 0 0 1 4.38-1.51c4.44-0.872 8.02 0.746 10.7 4.22 1.06 1.36 1.69 1.81 3.45 0.704 5.33-3.35 12-1.45 15.1 4.13 0.66 1.19 1.25 1.52 2.41 0.797 7.84-4.89 16.8 1.58 16.9 10.5 0.0585 9.06-0.0517 18.1-1.02 27.1a204 204 0 0 1-4.33 26.1c-1.38 5.71-4.7 9.85-9.44 13a33.4 33.4 0 0 1-19.3 5.9c-6.25-0.0702-12.5 9e-3 -18.7-0.0197-7.74-0.0357-13.8-3.35-18.6-9.35-4.4-5.48-9.01-10.8-13.7-16.1-5.47-6.17-11.1-12.2-16.6-18.3-6.62-7.32-3.02-18.8 7.14-21.1 4.48-1.02 8.62 0.407 11.8 3.87 1.83 1.97 3.5 4.09 5.31 6.08 0.468 0.506 1.2 0.771 2.19 1.39zm4.76-25.7q0 15.8 4e-3 31.6c0 1.49 0.128 3.07-1.65 3.69-1.74 0.608-2.54-0.832-3.43-1.85q-5.2-5.94-10.3-11.9c-2.37-2.76-5.46-3.23-8.67-2.33-5.96 1.67-7.79 8.93-3.56 13.5 5.53 6.04 11.2 12 16.6 18.1 4.89 5.55 9.56 11.3 14.3 17a17.5 17.5 0 0 0 13.9 6.66c6.43 0.0752 12.9-0.0616 19.3 0.0444a27.9 27.9 0 0 0 13.4-3.02c4.52-2.33 9.02-5.04 10.2-10.4 1.75-7.83 3.09-15.8 4.3-23.7a118 118 0 0 0 1.19-14.1c0.197-6.05 0.225-12.1-0.0234-18.2-0.15-3.62-3.1-5.85-6.61-5.65-3.52 0.201-6.01 2.9-6.02 6.55-0.0136 3.92 0 7.84-4e-3 11.8 0 1.72 0.0616 3.43-0.024 5.15-0.0715 1.44-0.805 2.51-2.37 2.51-1.56-6.1e-4 -2.27-0.99-2.31-2.5-0.0142-0.674-0.0185-1.35-0.0191-2.02 0-6.56 0.0437-13.1-0.0179-19.7-0.037-3.94-2.82-6.78-6.44-6.77-3.75 7e-3 -6.47 2.9-6.48 6.91-0.0123 3.12 0 6.25 0 9.38q0 6.07 0 12.1c0 1.34-0.627 2.44-1.94 2.44-0.845 5e-3 -1.83-0.689-2.49-1.34-0.365-0.361-0.246-1.27-0.246-1.94-0.0123-8.15 6e-3 -16.3-0.01-24.5-7e-3 -3.56-2.4-6.16-5.65-6.51-5.1-0.54-7.3 3.43-7.29 6.92 0.0302 8.15 7e-3 16.3-6e-3 24.5-4e-3 1.92-0.782 2.92-2.24 2.96-1.49 0.0388-2.39-1.08-2.44-3.02-0.01-0.431-6e-3 -0.858-6e-3 -1.29l-4e-3 -37.7c0-5.51 0.0197-11-9e-3 -16.5-0.0154-2.83-2.09-5.58-4.58-6.19-3.07-0.755-6.09 0.472-7.42 3.29a9.94 9.94 0 0 0-0.832 4.05c-0.0708 10.6-0.0413 21.2-0.04 31.8z"/>
 <path d="m167 134a34 34 0 0 0 6.24-14.3c2.12-12.3-1.01-23-9.98-31.8-6.89-6.75-15.3-9.7-24.9-9.68-15.2 0.0406-29.2 10.8-33 26a35 35 0 0 0 17.6 39.8c1.04 0.543 2.65 0.815 1.81 2.77a33.5 33.5 0 0 1-10.3-6.6c-8.05-7.45-12.4-16.7-12.2-27.6a36.7 36.7 0 0 1 29.6-35.5c12.3-2.49 23 0.892 32.2 9.24 7.89 7.21 11.7 16.4 11.8 27a34.4 34.4 0 0 1-5.89 19.4c-0.554 0.839-1.74 1.26-2.63 1.87z"/>
 <path d="m153 129a22.3 22.3 0 0 0 7.06-12.7c1.64-9.24-3.26-18.9-11.9-22.9a21.5 21.5 0 0 0-28 9.09c-4.43 7.93-2.82 19 3.59 25.3a5.02 5.02 0 0 1 1.14 2.8 18.6 18.6 0 0 1-6.65-7.52c-7.26-14 1.87-31.1 17.9-33.5 10.7-1.6 22 5.9 25.1 16.5 2.31 7.85 0.566 14.8-4.22 21.2-0.953 1.27-2.04 2.3-4.07 1.69z"/>
</svg>
